REM DIRINDEX 1\2\4,1\2\5,1\2\6,1\3\7,1\3\8,1\3\9,1\3\10
REM DIRNAME cjc058,folder01,folder02,folder03,folder04,folder05,folder06,folder07,folder08,folder09
TITLE ""
FILE "a_66.mp3" MP3
  TRACK 01 AUDIO
    TITLE "0:"
    INDEX 01 00:00:00
  TRACK 02 AUDIO
    TITLE "6:cjc058_1767"
    INDEX 01 00:00:13
  TRACK 03 AUDIO
    TITLE "0:"
    INDEX 01 00:02:45
  TRACK 04 AUDIO
    TITLE "4:cjc058_1768"
    INDEX 01 00:03:14
  TRACK 05 AUDIO
    TITLE "0:"
    INDEX 01 00:04:72
  TRACK 06 AUDIO
    TITLE "5:cjc058_1769"
    INDEX 01 00:05:26
  TRACK 07 AUDIO
    TITLE "0:"
    INDEX 01 00:09:42
  TRACK 08 AUDIO
    TITLE "4:cjc058_1770"
    INDEX 01 00:10:49
  TRACK 09 AUDIO
    TITLE "0:"
    INDEX 01 00:13:00
  TRACK 10 AUDIO
    TITLE "5:cjc058_1771"
    INDEX 01 00:13:28
  TRACK 11 AUDIO
    TITLE "0:"
    INDEX 01 00:16:53
  TRACK 12 AUDIO
    TITLE "4:cjc058_1772"
    INDEX 01 00:17:53
  TRACK 13 AUDIO
    TITLE "0:"
    INDEX 01 00:19:32
  TRACK 14 AUDIO
    TITLE "5:cjc058_1773"
    INDEX 01 00:19:62
  TRACK 15 AUDIO
    TITLE "0:"
    INDEX 01 00:21:51
  TRACK 16 AUDIO
    TITLE "4:cjc058_1774"
    INDEX 01 00:22:56
  TRACK 17 AUDIO
    TITLE "0:"
    INDEX 01 00:24:72
  TRACK 18 AUDIO
    TITLE "5:cjc058_1775"
    INDEX 01 00:25:27
  TRACK 19 AUDIO
    TITLE "0:"
    INDEX 01 00:27:53
  TRACK 20 AUDIO
    TITLE "4:cjc058_1776"
    INDEX 01 00:28:57
  TRACK 21 AUDIO
    TITLE "0:"
    INDEX 01 00:31:45
  TRACK 22 AUDIO
    TITLE "5:cjc058_1777"
    INDEX 01 00:32:00
  TRACK 23 AUDIO
    TITLE "0:"
    INDEX 01 00:34:57
  TRACK 24 AUDIO
    TITLE "4:cjc058_1778"
    INDEX 01 00:35:63
  TRACK 25 AUDIO
    TITLE "0:"
    INDEX 01 00:37:73
  TRACK 26 AUDIO
    TITLE "5:cjc058_1779"
    INDEX 01 00:38:28
  TRACK 27 AUDIO
    TITLE "0:"
    INDEX 01 00:40:26
  TRACK 28 AUDIO
    TITLE "4:cjc058_1780"
    INDEX 01 00:41:30
  TRACK 29 AUDIO
    TITLE "0:"
    INDEX 01 00:43:31
  TRACK 30 AUDIO
    TITLE "5:cjc058_1781"
    INDEX 01 00:43:60
  TRACK 31 AUDIO
    TITLE "0:"
    INDEX 01 00:45:22
  TRACK 32 AUDIO
    TITLE "4:cjc058_1782"
    INDEX 01 00:46:25
  TRACK 33 AUDIO
    TITLE "0:"
    INDEX 01 00:49:06
  TRACK 34 AUDIO
    TITLE "5:cjc058_1783"
    INDEX 01 00:49:35
  TRACK 35 AUDIO
    TITLE "0:"
    INDEX 01 00:51:58
  TRACK 36 AUDIO
    TITLE "4:cjc058_1784"
    INDEX 01 00:52:63
  TRACK 37 AUDIO
    TITLE "0:"
    INDEX 01 00:55:28
  TRACK 38 AUDIO
    TITLE "5:cjc058_1785"
    INDEX 01 00:55:57
  TRACK 39 AUDIO
    TITLE "0:"
    INDEX 01 00:59:08
  TRACK 40 AUDIO
    TITLE "4:cjc058_1786"
    INDEX 01 01:00:10
  TRACK 41 AUDIO
    TITLE "0:"
    INDEX 01 01:02:26
  TRACK 42 AUDIO
    TITLE "5:cjc058_1787"
    INDEX 01 01:02:55
  TRACK 43 AUDIO
    TITLE "0:"
    INDEX 01 01:05:58
  TRACK 44 AUDIO
    TITLE "4:cjc058_1788"
    INDEX 01 01:06:65
  TRACK 45 AUDIO
    TITLE "0:"
    INDEX 01 01:08:70
  TRACK 46 AUDIO
    TITLE "5:cjc058_1789"
    INDEX 01 01:09:24
  TRACK 47 AUDIO
    TITLE "0:"
    INDEX 01 01:14:37
  TRACK 48 AUDIO
    TITLE "4:cjc058_1790"
    INDEX 01 01:15:42
  TRACK 49 AUDIO
    TITLE "0:"
    INDEX 01 01:17:41
  TRACK 50 AUDIO
    TITLE "5:cjc058_1791"
    INDEX 01 01:17:71
  TRACK 51 AUDIO
    TITLE "0:"
    INDEX 01 01:20:10
  TRACK 52 AUDIO
    TITLE "4:cjc058_1792"
    INDEX 01 01:21:14
  TRACK 53 AUDIO
    TITLE "0:"
    INDEX 01 01:24:12
  TRACK 54 AUDIO
    TITLE "5:cjc058_1793"
    INDEX 01 01:24:41
  TRACK 55 AUDIO
    TITLE "0:"
    INDEX 01 01:27:14
  TRACK 56 AUDIO
    TITLE "4:cjc058_1794"
    INDEX 01 01:28:20
  TRACK 57 AUDIO
    TITLE "0:"
    INDEX 01 01:30:22
  TRACK 58 AUDIO
    TITLE "5:cjc058_1795"
    INDEX 01 01:30:52
  TRACK 59 AUDIO
    TITLE "0:"
    INDEX 01 01:32:47
  TRACK 60 AUDIO
    TITLE "4:cjc058_1796"
    INDEX 01 01:33:48
  TRACK 61 AUDIO
    TITLE "0:"
    INDEX 01 01:35:49
  TRACK 62 AUDIO
    TITLE "5:cjc058_1797"
    INDEX 01 01:36:03
  TRACK 63 AUDIO
    TITLE "0:"
    INDEX 01 01:37:68
  TRACK 64 AUDIO
    TITLE "4:cjc058_1798"
    INDEX 01 01:38:71
  TRACK 65 AUDIO
    TITLE "0:"
    INDEX 01 01:41:42
  TRACK 66 AUDIO
    TITLE "5:cjc058_1799"
    INDEX 01 01:41:71
  TRACK 67 AUDIO
    TITLE "0:"
    INDEX 01 01:45:53
  TRACK 68 AUDIO
    TITLE "4:cjc058_1800"
    INDEX 01 01:46:57
  TRACK 69 AUDIO
    TITLE "0:"
    INDEX 01 01:49:32
  TRACK 70 AUDIO
    TITLE "5:cjc058_1801"
    INDEX 01 01:49:61
  TRACK 71 AUDIO
    TITLE "0:"
    INDEX 01 01:53:57
  TRACK 72 AUDIO
    TITLE "4:cjc058_1802"
    INDEX 01 01:54:60
  TRACK 73 AUDIO
    TITLE "0:"
    INDEX 01 01:57:23
  TRACK 74 AUDIO
    TITLE "5:cjc058_1803"
    INDEX 01 01:57:53
  TRACK 75 AUDIO
    TITLE "0:"
    INDEX 01 02:00:55
  TRACK 76 AUDIO
    TITLE "4:cjc058_1804"
    INDEX 01 02:01:60
  TRACK 77 AUDIO
    TITLE "0:"
    INDEX 01 02:04:37
  TRACK 78 AUDIO
    TITLE "5:cjc058_1805"
    INDEX 01 02:04:66
  TRACK 79 AUDIO
    TITLE "0:"
    INDEX 01 02:07:55
  TRACK 80 AUDIO
    TITLE "4:cjc058_1806"
    INDEX 01 02:08:58
  TRACK 81 AUDIO
    TITLE "0:"
    INDEX 01 02:10:57
  TRACK 82 AUDIO
    TITLE "5:cjc058_1807"
    INDEX 01 02:11:12
  TRACK 83 AUDIO
    TITLE "0:"
    INDEX 01 02:13:24
  TRACK 84 AUDIO
    TITLE "4:cjc058_1808"
    INDEX 01 02:14:28
  TRACK 85 AUDIO
    TITLE "0:"
    INDEX 01 02:16:11
  TRACK 86 AUDIO
    TITLE "5:cjc058_1809"
    INDEX 01 02:16:40
  TRACK 87 AUDIO
    TITLE "0:"
    INDEX 01 02:19:01
